<svg xmlns="http://www.w3.org/2000/svg" viewBox="0 0 512 512" width="100%" height="100%">
  <rect width="512" height="512" rx="128" fill="#050505"/>
  <rect x="16" y="16" width="480" height="480" rx="112" fill="none" stroke="#E61E2A" stroke-width="8" stroke-opacity="0.3"/>
  <!-- Flame background glow -->
  <circle cx="256" cy="270" r="160" fill="#E61E2A" opacity="0.15" filter="blur(20px)"/>
  <!-- Outer Flame -->
  <path d="M256 64 C256 64, 340 180, 340 288 C340 348, 302 400, 256 400 C210 400, 172 348, 172 288 C172 210, 220 150, 256 64 Z" fill="#E61E2A"/>
  <!-- Inner Flame Gold -->
  <path d="M256 160 C256 160, 310 240, 310 300 C310 340, 286 370, 256 370 C226 370, 202 340, 202 300 C202 245, 235 200, 256 160 Z" fill="#FF9F1C"/>
  <!-- Dragon/Flame Core -->
  <path d="M256 220 C256 220, 285 270, 285 310 C285 330, 272 350, 256 350 C240 350, 227 330, 227 310 C227 275, 245 245, 256 220 Z" fill="#FFFFFF"/>
  <!-- Grill Crossbars Accent -->
  <line x1="160" y1="420" x2="352" y2="420" stroke="#FF9F1C" stroke-width="12" stroke-linecap="round"/>
  <line x1="180" y1="440" x2="332" y2="440" stroke="#E61E2A" stroke-width="10" stroke-linecap="round"/>
</svg>
